#!OML:ASF I:\Actors\actors\Patient Classification 2\Patient 1\Session 1\actor1.ASF
:FULLY-SPECIFIED
:DEGREES
390
root -1.08491 18.1726 5.82186 1.22222 16.5986 -4.29668
lowerback 5.46035 5.73506 -2.79486
upperback -0.215047 7.4194 -1.17956
thorax -3.46283 3.72544 -0.297572
lowerneck -10.6316 -15.162 -13.4808
upperneck 2.44135 -20.2251 19.797
head 5.96739 -9.2833 6.14126
rclavicle -1.23644e-013 1.51076e-014
rhumerus -29.7155 -8.67919 -76.3311
rradius 38.5518
rwrist -17.1666
rhand -7.42353 -58.0193
rfingers 7.12502
rthumb 18.4634 -87.1631
lclavicle -1.23644e-013 1.51076e-014
lhumerus -56.0291 1.22396 75.8253
lradius 56.6174
lwrist 12.0766
lhand -8.65535 -21.6219
lfingers 7.12502
lthumb 17.2782 7.63007
rfemur 10.2143 -13.0549 20.2631
rtibia 3.81667e-014
rfoot -20.6901 -8.86241
rtoes 10.8413
lfemur 13.1432 -14.8005 -11.791
ltibia -22.6644
lfoot 4.355 11.7871
ltoes -14.1949
391
root -1.05569 18.1664 5.8473 1.15608 14.8927 -3.95982
lowerback 5.04192 5.70802 -2.91228
upperback -0.257304 7.39123 -1.21373
thorax -3.28263 3.71377 -0.223393
lowerneck -11.3362 -14.7482 -12.9538
upperneck 3.01731 -19.6809 19.3116
head 6.06001 -8.97431 5.96146
rclavicle -8.57756e-014 9.54166e-015
rhumerus -30.142 -9.25049 -75.5444
rradius 38.6076
rwrist -16.8364
rhand -7.13432 -58.0113
rfingers 7.12502
rthumb 18.7416 -87.1284
lclavicle -8.57756e-014 9.54166e-015
lhumerus -55.5848 1.34072 75.1455
lradius 56.197
lwrist 11.5396
lhand -8.42729 -21.4063
lfingers 7.12502
lthumb 17.4977 7.82619
rfemur 10.3115 -11.3477 19.8296
rtibia 2.70347e-014
rfoot -20.7385 -9.08562
rtoes 10.3208
lfemur 13.8326 -14.0931 -12.4319
ltibia -22.4473
lfoot 3.64171 12.6166
ltoes -13.4979
392
root -1.02337 18.1568 5.87448 1.04742 13.2468 -3.39319
lowerback 4.68204 5.64321 -3.23627
upperback -0.295353 7.29862 -1.2808
thorax -3.15074 3.67269 -0.0726278
lowerneck -11.8872 -14.2139 -12.4842
upperneck 3.57241 -18.9884 18.8977
head 6.119 -8.60284 5.84606
rclavicle -5.86415e-015 -1.59028e-015
rhumerus -30.5867 -9.40805 -74.8617
rradius 38.6832
rwrist -16.6124
rhand -7.53545 -57.5061
rfingers 7.12502
rthumb 18.3558 -86.66
lclavicle -5.86415e-015 -1.59028e-015
lhumerus -55.2012 1.50544 74.4453
lradius 55.7469
lwrist 11.0513
lhand -8.14322 -21.0983
lfingers 7.12502
lthumb 17.771 8.10967
rfemur 10.5248 -9.68687 19.1144
rtibia 4.77083e-015
rfoot -20.8319 -9.29082
rtoes 9.98755
lfemur 14.6025 -13.3674 -13.3712
ltibia -22.2248
lfoot 2.95375 13.3249
ltoes -13.0253
393
root -1.00057 18.1456 5.89143 0.768516 12.2433 -3.26032
lowerback 4.59908 5.37008 -3.17154
upperback -0.37322 6.9427 -1.20782
thorax -3.1765 3.49634 -0.000167213
lowerneck -12.4435 -13.6519 -11.9741
upperneck 4.25267 -18.2703 18.353
head 6.20111 -8.22167 5.68436
rclavicle 1.87852e-014 1.27222e-014
rhumerus -31.0315 -9.34439 -74.2569
rradius 38.8991
rwrist -17.3841
rhand -8.67141 -56.4684
rfingers 7.12502
rthumb 17.2627 -85.7217
lclavicle 1.87852e-014 1.27222e-014
lhumerus -54.7631 1.71907 73.7253
lradius 55.1698
lwrist 10.2684
lhand -7.81386 -20.785
lfingers 7.12502
lthumb 18.0879 8.39399
rfemur 10.8446 -8.67873 18.9181
rtibia -9.54166e-015
rfoot -20.971 -9.40575
rtoes 9.93026
lfemur 15.1989 -12.8339 -13.7071
ltibia -22.0184
lfoot 2.4939 13.6377
ltoes -12.7
394
root -0.984756 18.1379 5.9041 0.511948 10.9112 -3.43939
lowerback 4.55586 5.22051 -2.8282
upperback -0.518125 6.76562 -1.08073
thorax -3.27265 3.40553 -0.0469363
lowerneck -13.0418 -13.1339 -11.4268
upperneck 5.01921 -17.6189 17.7053
head 6.32012 -7.87372 5.46847
rclavicle -1.01529e-013 1.35174e-014
rhumerus -31.4654 -9.74559 -73.3848
rradius 39.0093
rwrist -16.5325
rhand -7.41972 -57.7826
rfingers 7.12502
rthumb 18.4671 -86.926
lclavicle -1.01529e-013 1.35174e-014
lhumerus -54.236 1.89643 73.0029
lradius 54.5241
lwrist 9.44702
lhand -7.49244 -20.5357
lfingers 7.12502
lthumb 18.3972 8.61434
rfemur 10.9686 -7.36126 19.1157
rtibia 1.43125e-014
rfoot -21.0089 -9.58282
rtoes 9.568
lfemur 15.7691 -12.2293 -13.661
ltibia -21.8612
lfoot 1.93043 14.2361
ltoes -11.8012
395
root -0.965163 18.128 5.9232 0.273252 9.64175 -3.44188
lowerback 4.39002 5.04346 -2.62746
upperback -0.589823 6.54887 -0.989223
thorax -3.2366 3.29592 -0.0332356
lowerneck -13.6415 -12.603 -10.9276
upperneck 5.79662 -16.9531 17.1088
head 6.4599 -7.51867 5.27627
rclavicle -1.75924e-014 2.38542e-015
rhumerus -31.8577 -9.66148 -72.8038
rradius 39.402
rwrist -17.2229
rhand -8.91896 -57.8481
rfingers 7.12502
rthumb 17.0244 -87.1221
lclavicle -1.75924e-014 2.38542e-015
lhumerus -53.683 2.11955 72.2861
lradius 53.9524
lwrist 8.74983
lhand -7.13978 -20.2046
lfingers 7.12502
lthumb 18.7364 8.91302
rfemur 11.1532 -6.09367 19.0995
rtibia 1.11319e-014
rfoot -21.0621 -9.77538
rtoes 8.78801
lfemur 16.4047 -11.4291 -13.8114
ltibia -21.7799
lfoot 1.47559 14.555
ltoes -11.0735
396
root -0.946126 18.1194 5.94136 0.0683832 8.41772 -3.32784
lowerback 4.19423 4.84247 -2.59381
upperback -0.652637 6.29162 -0.899055
thorax -3.19234 3.16887 0.075136
lowerneck -14.2196 -12.0187 -10.317
upperneck 6.60089 -16.2215 16.3711
head 6.58079 -7.14117 5.03276
rclavicle -2.57923e-014 4.77083e-015
rhumerus -32.2615 -9.67959 -72.2278
rradius 39.753
rwrist -17.6485
rhand -10.3548 -57.0958
rfingers 7.12502
rthumb 15.6419 -86.4835
lclavicle -2.57923e-014 4.77083e-015
lhumerus -53.163 2.47118 71.5537
lradius 53.4359
lwrist 8.06846
lhand -6.78391 -19.8379
lfingers 7.12502
lthumb 19.0786 9.24632
rfemur 11.3217 -4.86726 18.9637
rtibia 2.22639e-014
rfoot -21.1112 -9.96576
rtoes 8.32867
lfemur 16.9941 -10.6541 -14.0804
ltibia -21.697
lfoot 1.06774 14.8412
ltoes -10.5957
397
root -0.927802 18.1101 5.9582 -0.195354 7.20805 -3.25016
lowerback 4.10555 4.65378 -2.52397
upperback -0.727527 6.04885 -0.796771
thorax -3.21781 3.04868 0.16352
lowerneck -14.716 -11.4181 -9.66388
upperneck 7.39931 -15.4733 15.5652
head 6.68581 -6.76633 4.76517
rclavicle 5.397e-014 -1.19271e-014
rhumerus -32.9104 -9.81084 -71.5429
rradius 40.2345
rwrist -17.4333
rhand -11.0747 -56.4922
rfingers 7.12502
rthumb 14.9485 -85.9328
lclavicle 5.397e-014 -1.19271e-014
lhumerus -52.6424 2.93573 70.7901
lradius 52.9172
lwrist 7.4796
lhand -6.39314 -19.5048
lfingers 7.12502
lthumb 19.4544 9.54193
rfemur 11.5402 -3.65398 18.8712
rtibia 0
rfoot -21.1901 -10.1394
rtoes 8.00575
lfemur 17.6234 -10.1511 -14.3439
ltibia -21.5918
lfoot 0.588316 15.3929
ltoes -10.1398
398
root -0.909957 18.0998 5.97578 -0.482616 6.04084 -3.21875
lowerback 3.90749 4.45665 -2.44148
upperback -0.716481 5.80138 -0.655707
thorax -3.09532 2.92516 0.298516
lowerneck -15.1435 -10.8043 -8.99908
upperneck 8.0937 -14.7007 14.7562
head 6.75514 -6.38946 4.49932
rclavicle -7.57867e-015 1.27222e-014
rhumerus -33.6247 -9.66155 -70.7696
rradius 40.9675
rwrist -17.259
rhand -11.7516 -55.973
rfingers 7.12502
rthumb 14.2964 -85.4609
lclavicle -7.57867e-015 1.27222e-014
lhumerus -52.0294 3.57636 70.0103
lradius 52.318
lwrist 6.83513
lhand -5.97076 -19.8785
lfingers 7.12502
lthumb 19.8605 9.12674
rfemur 11.785 -2.48258 18.8357
rtibia -7.95139e-015
rfoot -21.2938 -10.2927
rtoes 7.65303
lfemur 18.2756 -9.77455 -14.575
ltibia -21.4823
lfoot 0.0841404 16.0269
ltoes -9.83137
399
root -0.893441 18.0904 5.99388 -0.734116 4.94912 -3.17026
lowerback 3.53823 4.23521 -2.42023
upperback -0.635833 5.52509 -0.48081
thorax -2.81278 2.7873 0.519335
lowerneck -15.476 -10.1687 -8.34398
upperneck 8.65503 -13.8853 13.9394
head 6.7744 -6.0042 4.2402
rclavicle 5.11871e-015 -1.03368e-014
rhumerus -33.8258 -9.51313 -69.9868
rradius 41.3309
rwrist -17.1984
rhand -12.0726 -55.3428
rfingers 7.12502
rthumb 13.987 -84.8523
lclavicle 5.11871e-015 -1.03368e-014
lhumerus -51.4868 4.17122 69.3601
lradius 51.9099
lwrist 6.26697
lhand -5.73554 -20.8194
lfingers 7.12502
lthumb 20.0866 8.16231
rfemur 11.9979 -1.38791 18.7978
rtibia 7.95139e-015
rfoot -21.355 -10.4533
rtoes 7.49873
lfemur 18.8918 -9.44692 -14.8113
ltibia -21.3855
lfoot -0.459326 16.5952
ltoes -9.3493
400
root -0.879518 18.0812 6.00898 -1.00906 3.88149 -3.14627
lowerback 3.34261 4.03833 -2.33375
upperback -0.61961 5.27632 -0.342039
thorax -2.68407 2.66263 0.645793
lowerneck -15.753 -9.54464 -7.76629
upperneck 9.23584 -13.0983 13.2549
head 6.82308 -5.62845 4.02957
rclavicle -2.86995e-014 1.19271e-014
rhumerus -33.3675 -9.92945 -69.3865
rradius 40.932
rwrist -16.9111
rhand -12.3183 -54.5604
rfingers 7.12502
rthumb 13.7502 -84.0861
lclavicle -2.86995e-014 1.19271e-014
lhumerus -50.9191 4.60325 68.8025
lradius 51.5162
lwrist 5.93461
lhand -5.85518 -21.249
lfingers 7.12502
lthumb 19.9716 7.74466
rfemur 12.2225 -0.321693 18.8071
rtibia -6.36111e-015
rfoot -21.3849 -10.686
rtoes 6.89558
lfemur 19.5031 -9.09718 -15.0035
ltibia -21.2879
lfoot -1.00818 17.0999
ltoes -8.74605
